<?xml version="1.0" encoding="UTF-8"?><svg xmlns="http://www.w3.org/2000/svg" width="1109.7" height="1337.2" viewBox="0 0 1109.7 1337.2"><g id="a"/><g id="b"><g id="c"><g><path d="M857.4,205.3c29.1-36.1,84.2-126.7,64.9-122.5-23,4.9-75.7,89.8-64.9,122.5h0Z" fill="#5a7f25"/><path d="M857.4,205.3c29.1-36.1,84.2-126.7,64.9-122.5-23,4.9-75.8,89.8-64.9,122.5h0Z" fill="none" stroke="#000" stroke-width="4.9"/><path d="M926.3,319.3c-77.1-27.5,19-183.3,23-171.6,10.5,30.1,1.3,40.8,.9,44.4-4.1,37.1-26.2,73.2-30.1,108.5,31.6,95.2,189-174.4,64.3-31.5-17.8,20.4-33.5,39.6-58.1,50.1h0Z" fill="#5d8549"/><path d="M926.3,319.3c-77.1-27.5,19-183.3,23-171.6,10.5,30.1,1.3,40.8,.9,44.4-4.2,37.1-26.2,73.2-30.1,108.5,31.6,95.2,189-174.4,64.3-31.5-17.8,20.4-33.5,39.6-58.1,50.1h0Z" fill="none" stroke="#000" stroke-width="4.9"/><path d="M918.2,303.2c-16.5-7.5-36.1-4.3-53.6-1.9-28.9,3.9-58.6-7.5-82.6-2.4-7.1,1.5-29.8,8.4-28.3,15.5,2.5,12,57.3,38.2,76.6,34.2,18.9-4,80.5-26.6,87.9-45.4h0Z" fill="#465f26"/><path d="M918.2,303.2c-16.5-7.5-36.1-4.2-53.6-1.9-28.9,3.9-58.6-7.5-82.6-2.4-7,1.5-29.8,8.4-28.3,15.5,2.6,12,57.4,38.2,76.6,34.2,18.9-4,80.5-26.6,87.9-45.4h0Z" fill="none" stroke="#000" stroke-width="4.9"/><path d="M999.1,523.9c-23.8-9.8-44.6-25.2-66-39.2-82.5-53.5,63.1-3.3,66,39.2h0Z" fill="#4a6f2d"/><path d="M999.1,523.9c-23.8-9.9-44.6-25.2-66-39.2-82.5-53.5,63.1-3.3,66,39.2h0Z" fill="none" stroke="#000" stroke-width="4.9"/><path d="M1000.9,514.1c-11.7,22.2-32.6,30.3-53.1,42.4-18.8,11.1-58.3-11.9-58-12.1,33.1-19.4,79.1-7.7,111.1-30.3h0Z" fill="#6a8116"/><path d="M1000.9,514.1c-11.7,22.2-32.6,30.3-53.1,42.4-18.8,11.1-58.3-11.9-58-12,33.1-19.4,79.1-7.7,111.1-30.3h0Z" fill="none" stroke="#000" stroke-width="4.9"/><path d="M1014.5,515.7c12.4,36.4,95.1,2,92.8-2-22.3-38-98.1,10.2-92.8,2,9.3-14.4,23.9-22.8,35.4-31.9,36.7-29.4-26.8-11.6-35.4,31.9h0Z" fill="#7ea040"/><path d="M1014.5,515.7c12.4,36.4,95.1,2,92.8-2-22.3-38-98.1,10.2-92.8,2,9.3-14.4,23.9-22.8,35.4-31.9,36.7-29.3-26.8-11.6-35.4,31.9h0Z" fill="none" stroke="#000" stroke-width="4.9"/><path d="M989.7,888.1c-5.5-17.4-18.2-47.2-26.3-60.9-6.9-11.7-77.8-105.5-84.6-95.1-5.9,9.1,101.8,158,110.9,156.1,26-5.5,2.3-121.9-7.3-107.1-27.5,42.5,27.6,109.5,7.3,107.1-10.2-1.1-65.3-57-99.5-60.9-6.5-.7-22,.5-18.6,6.2,8.4,14.2,39,18,52.2,26.6,25.8,16.8,53.4,20,78.8,36.5" fill="#4a722c"/><path d="M989.7,888.1c-5.5-17.4-18.2-47.2-26.3-60.9-6.9-11.7-77.8-105.6-84.6-95.1-5.9,9.1,101.8,158,110.9,156.1,26-5.5,2.3-121.9-7.3-107.2-27.5,42.5,27.7,109.5,7.3,107.2-10.2-1.1-65.3-57-99.5-60.9-6.5-.7-22,.5-18.6,6.2,8.4,14.2,39,18,52.2,26.6,25.8,16.8,53.4,20,78.8,36.5" fill="none" stroke="#000" stroke-width="4.9"/><path d="M1043.2,702.5c-27.1-26.1-135.1-107.1-72.7-28.9,17,21.3,49.5,13.8,72.7,28.9h0Z" fill="#86a366"/><path d="M1043.3,702.5c-27.1-26.1-135.2-107.1-72.7-28.8,17.1,21.3,49.5,13.8,72.7,28.8h0Z" fill="none" stroke="#000" stroke-width="4.9"/><path d="M860.7,194.6c1,.7,1.8,1.6,2.4,2.7,115.2,202.7,185.4,344.4,184.5,503.5-1,159.1-20,333.8-185.8,602.9-2.1,3.4-7.1,4.5-10.5,2.4-3.4-2.1-4.6-7.1-2.5-10.5,165.3-268.3,182.6-440.4,183.5-595,.9-154.6-67.4-293.6-182.5-495.9-1.7-2.9-1.2-7.1,1.3-9.4,2.5-2.3,6.7-2.7,9.5-.8h0Z" fill="#acbf86"/><path d="M860.7,194.6c1,.7,1.8,1.6,2.4,2.7,115.2,202.7,185.4,344.4,184.5,503.5-1,159.1-20,333.8-185.8,602.9-2.1,3.4-7.1,4.5-10.5,2.4-3.4-2.1-4.6-7-2.5-10.5,165.3-268.3,182.6-440.4,183.5-595,.9-154.6-67.4-293.6-182.5-495.9-1.7-2.9-1.2-7.1,1.4-9.4,2.5-2.3,6.7-2.7,9.5-.7h0Z" fill="none" stroke="#000" stroke-width="4.9"/><path d="M849.5,205.2c-43.8,15.3-147.6,36.7-137.2,19.8,12.4-20,110-41.1,137.2-19.8h0Z" fill="#5a7f25"/><path d="M849.5,205.2c-43.8,15.3-147.6,36.7-137.2,19.8,12.4-20,110-41.1,137.2-19.8h0Z" fill="none" stroke="#000" stroke-width="4.9"/><path d="M846.2,200.3c-61.4-25.7-126.2-95.7-106.4-144.1,1.4-3.4,34.5,38.6,38.3,44.1,23,33,58.6,64,68.1,100.1h0Z" fill="#749d3d"/><path d="M846.2,200.3c-61.4-25.7-126.2-95.7-106.4-144.1,1.4-3.4,34.5,38.6,38.3,44.1,23,33,58.6,64,68.1,100.1h0Z" fill="none" stroke="#000" stroke-width="4.9"/><path d="M501.5,884.6c2.2-21.9-53-174.9-70.6-174.9s8.7,34.6,18.4,49.1c25.8,38.7,22.9,86.8,52.1,125.8h0Z" fill="#567431"/><path d="M501.5,884.6c2.2-21.9-53-174.9-70.6-174.9s8.7,34.6,18.4,49.1c25.8,38.7,22.9,86.8,52.1,125.8h0Z" fill="none" stroke="#000" stroke-width="4.9"/><path d="M618.1,926.9c-5.3-45.8-27.5-67.5-55.2-67.5s11.6,9.1,15.3,15.3c14.3,23.9,8.2,33.2,39.9,52.2h0Z" fill="#769e2a"/><path d="M618.1,926.9c-5.3-45.8-27.5-67.5-55.2-67.5s11.6,9.1,15.3,15.3c14.3,23.9,8.2,33.2,39.9,52.2h0Z" fill="none" stroke="#000" stroke-width="4.9"/><path d="M605.9,946c-158.8,98.9-89.8,107.8,0,0h0Z" fill="#aec578"/><path d="M605.9,946c-158.8,98.9-89.8,107.8,0,0h0Z" fill="none" stroke="#000" stroke-width="4.9"/><path d="M495.4,881.5c-49.9,7.9-138.1,57.7-138.1,116.6s44.4-32.5,46.1-33.8c34-27.2,92-38.6,92-82.8h0Z" fill="#748c41"/><path d="M495.4,881.5c-49.9,7.9-138.1,57.7-138.1,116.6s44.4-32.5,46.1-33.8c34-27.2,92-38.6,92-82.8h0Z" fill="none" stroke="#000" stroke-width="4.9"/><path d="M486.3,870.8c1.2,0,2.4,.4,3.4,.9,207,107.4,406.2,164.5,428.8,322.1,21.3,149.4,5,44.2,24.6,133.1,0,4-3.5,7.7-7.4,7.8-4,0-7.7-3.5-7.8-7.4-4.2-41.9-9.5,35.6-25.3-131.4-14.6-153.9-213.2-203.5-419.8-310.6-3.1-1.5-4.9-5.3-4-8.6,.9-3.3,4.1-5.9,7.6-5.8h0Z" fill="#acbf86"/><path d="M486.3,870.8c1.2,0,2.4,.4,3.4,.9,207,107.4,406.2,164.5,428.8,322.1,21.3,149.4,5,44.2,24.6,133.1,0,4-3.5,7.7-7.4,7.8-4,0-7.7-3.5-7.8-7.4-4.2-41.9-9.5,35.6-25.3-131.4-14.6-153.9-213.2-203.5-419.8-310.7-3.1-1.5-4.9-5.3-4-8.6,.9-3.3,4.1-5.8,7.6-5.8h0Z" fill="none" stroke="#000" stroke-width="4.9"/><path d="M483.1,887.7c-140.4-135.3-184.7-110.8,0,0h0Z" fill="#5b6827"/><path d="M483.1,887.7c-140.4-135.3-184.7-110.8,0,0h0Z" fill="none" stroke="#000" stroke-width="4.9"/><path d="M486.2,881.5c-5.8-41.2-156.1-36.1-141.2-6.1,11.5,23,117,6.1,141.2,6.1h0Z" fill="#a0c269"/><path d="M486.2,881.5c-5.8-41.2-156.1-36.1-141.2-6.1,11.5,23,117,6.1,141.2,6.1h0Z" fill="none" stroke="#000" stroke-width="4.9"/><path d="M661.5,389.3c55.5-87.8,265,15.6,0,0h0Z" fill="#54712e"/><path d="M661.5,389.3c55.5-87.8,265,15.6,0,0h0Z" fill="none" stroke="#000" stroke-width="4.9"/><path d="M642.7,395.9c-46.4-14.9-118.1,85.9-98.6,107.9,11.5,12.9,32.8-43.2,33.4-44.1,15.3-26.6,59.1-40.2,65.3-63.8h0Z" fill="#5d8625"/><path d="M642.7,395.9c-46.4-14.9-118.1,85.9-98.6,107.9,11.5,12.9,32.8-43.2,33.4-44.1,15.3-26.6,59.1-40.2,65.3-63.8h0Z" fill="none" stroke="#000" stroke-width="4.9"/><path d="M655.5,387.4c-33-24.9,48.2-141.8,65.6-122.1,9.1,10.3-22.5,17.1-29.4,29-17.8,30.9-16.4,58.7-36.2,93.2h0Z" fill="#67814e"/><path d="M655.5,387.4c-33-24.9,48.2-141.8,65.6-122.1,9.1,10.3-22.5,17.1-29.4,29-17.8,30.9-16.4,58.7-36.2,93.2h0Z" fill="none" stroke="#000" stroke-width="4.9"/><path d="M552.5,231.1c11,36.3-114.5,33-111.6,22.8,1-3.6,100.1-26.1,111.6-22.8h0Z" fill="#81a21e"/><path d="M552.5,231.1c10.9,36.3-114.5,33-111.6,22.8,1-3.6,100.1-26.1,111.6-22.8h0Z" fill="none" stroke="#000" stroke-width="4.9"/><path d="M538.7,151.5c-18.6-5-36.1,13.3-53,12.3-17.7-1.1-44.7,14.5-62.5,17.8-146.6,27.6,69.2-61.7,115.5-30.1h0Z" fill="#8a8e5c"/><path d="M538.7,151.5c-18.6-5-36.1,13.3-53,12.3-17.6-1.1-44.7,14.5-62.5,17.8-146.6,27.6,69.2-61.7,115.5-30.1h0Z" fill="none" stroke="#000" stroke-width="4.9"/><path d="M556.6,161.8c-40-41,62.7-79.3,53.9-79.8-.4,0-8.5,25-20.6,35.7-16.5,14.7-41.4,25.5-33.4,44.1h0Z" fill="#617c3c"/><path d="M556.6,161.8c-40-41,62.7-79.3,53.9-79.8-.4,0-8.5,25-20.6,35.7-16.5,14.7-41.4,25.5-33.4,44.1h0Z" fill="none" stroke="#000" stroke-width="4.9"/><path d="M544.7,128.8c3.2-16-169.9-109.6-117-49.9,6.3,7.1,13.5,25.2,19.8,28.8,27.3,15.7,67.1,7,97.2,21.1h0Z" fill="#a0c172"/><path d="M544.7,128.8c3.2-16-169.9-109.6-117-49.9,6.3,7.1,13.5,25.2,19.8,28.8,27.3,15.7,67.1,7,97.2,21.1h0Z" fill="none" stroke="#000" stroke-width="4.9"/><path d="M533.5,102c-4.5,0-8.3,4.7-7.4,9.1,0,0,10.6,56.4,31.4,122.6,20.9,66.2,51.5,142.5,94.4,183.8,38.5,37.2,105,147.4,164.1,275.7,59.1,128.3,111.5,275.6,126.1,388.8l29.5,229.2c.5,4,4.6,7.1,8.5,6.6,4-.5,7.1-4.6,6.6-8.5l-29.5-229.2c-15-116.1-68-264-127.4-393.2-59.5-129.2-124.5-238.9-167.3-280.3-38.6-37.2-69.9-112.2-90.4-177.5-20.6-65.3-31-120.8-31-120.8-.6-3.5-4-6.3-7.5-6.3h0Z" fill="#b7d264"/><path d="M533.5,102c-4.5,0-8.3,4.7-7.4,9.1,0,0,10.6,56.4,31.4,122.6,20.9,66.2,51.5,142.5,94.4,183.8,38.5,37.2,105,147.4,164.1,275.7,59.1,128.3,111.5,275.6,126.1,388.8l29.5,229.2c.5,4,4.6,7.1,8.5,6.6,4-.5,7.1-4.6,6.6-8.5l-29.5-229.2c-15-116.1-68-264-127.4-393.2-59.5-129.2-124.4-238.9-167.3-280.3-38.6-37.2-69.9-112.2-90.4-177.5-20.6-65.3-31-120.8-31-120.8-.6-3.5-4-6.3-7.5-6.3h0Z" fill="none" stroke="#000" stroke-width="4.9"/><path d="M541.4,131.7c-56.5-22.8,11.3-192,6.2-104.1-2,34,4.4,70.5-6.2,104.1h0Z" fill="#7e875e"/><path d="M541.4,131.7c-56.5-22.8,11.3-192,6.2-104.1-2,34,4.4,70.5-6.2,104.1h0Z" fill="none" stroke="#000" stroke-width="4.9"/><path d="M817.1,670.5c-13.2-229.7,37.5-119.6,0,0h0Z" fill="#527e31"/><path d="M817.1,670.5c-13.2-229.7,37.5-119.6,0,0h0Z" fill="none" stroke="#000" stroke-width="4.9"/><path d="M819.8,676.8c17.4-23,16.3-25.2,36.2-40.9,127.3-100.4-26.6,109.8-36.2,40.9h0Z" fill="#86a366"/><path d="M819.8,676.8c17.4-23,16.3-25.2,36.2-40.9,127.3-100.4-26.6,109.8-36.2,40.9h0Z" fill="none" stroke="#000" stroke-width="4.9"/><path d="M764.5,429.4c15.1-34.7-109.8-46.2-108.1-35.8,.6,3.7,96.3,37.6,108.1,35.8h0Z" fill="#d0d88e"/><path d="M764.5,429.3c15.1-34.7-109.8-46.2-108.1-35.8,.6,3.7,96.3,37.6,108.1,35.8h0Z" fill="none" stroke="#000" stroke-width="4.9"/><path d="M375.3,247.4c-59.6,22.2-82,108.6-79.2,196,8.1-33,91.3-187.7,81.6-195.3-.6-.5-1.4-.7-2.3-.7h0Zm-81.4,120c-1.5,.1-3,1.2-4.4,3.4-8,12.5-1.2,67.9-1,69.4,1-5.9,11.8-73.3,5.4-72.8h0Z" fill="#6d8f4e"/><path d="M375.3,247.4c-59.6,22.2-82,108.6-79.2,196,8.1-33,91.3-187.7,81.6-195.3-.6-.5-1.4-.7-2.3-.7h0Zm-81.4,120c-1.5,.1-3,1.2-4.4,3.4-8,12.5-1.2,67.9-1,69.4,1-5.8,11.8-73.3,5.4-72.8h0Z" fill="none" stroke="#000" stroke-width="4.9"/><path d="M266,405.9c66.8-251.4-62.4-66.5,0,0h0Z" fill="#5d8016"/><path d="M266,406c66.8-251.5-62.4-66.5,0,0h0Z" fill="none" stroke="#000" stroke-width="4.9"/><path d="M282.9,440.2c-40.9-1.1-83.2-4.1-122.5,9.4-26.4,8.9-48.3,28.1-63.4,51.2-5.5,6.4-17.2,13.3-12.9,23.1,4.7,11.7,18.5,18.8,30.7,14.8,19.2-4.6,34.4-18.1,49.3-30.4,13.4-11.7,25.6-25,39.6-35.9,11.7-5.9,25.2-5.6,37.7-8.2,15.4-2.1,33.4-6.7,40.7-22l.5-1,.4-1.1Z" fill="#91a476"/><path d="M282.9,440.2c-40.9-1.1-83.2-4.2-122.5,9.4-26.4,8.9-48.3,28.1-63.4,51.2-5.5,6.4-17.2,13.3-12.9,23.1,4.7,11.7,18.5,18.8,30.7,14.9,19.2-4.6,34.4-18.1,49.3-30.4,13.4-11.7,25.6-25,39.6-35.9,11.7-5.9,25.2-5.6,37.7-8.1,15.4-2.1,33.4-6.7,40.7-22l.5-1,.4-1.1Z" fill="none" stroke="#000" stroke-width="4.9"/><path d="M267.6,437.1c-18.2-14.9-33.7-35.3-55.3-46-13-6.5-77.4-36.1-92.1-21.5-31.4,31.4,139,50.9,147.3,67.5h0Z" fill="#496e0f"/><path d="M267.6,437.1c-18.2-14.9-33.7-35.3-55.3-46.1-13-6.5-77.4-36.1-92.1-21.5-31.4,31.4,139,50.9,147.3,67.5h0Z" fill="none" stroke="#000" stroke-width="4.9"/><path d="M160.2,308.2c-22.6,2.5-43.4-2-64.4-6.1-26.9-5.4-129.8-79.5-79.8-92,30.8-7.7,148.6,80.9,144.2,98.2h0Z" fill="#486d18"/><path d="M160.2,308.2c-22.6,2.5-43.4-2-64.4-6.1-26.9-5.4-129.8-79.5-79.8-92.1,30.8-7.7,148.6,80.9,144.2,98.2h0Z" fill="none" stroke="#000" stroke-width="4.9"/><path d="M154.1,271.4c21-14-11.7-144.5,0-150.4,32.7-16.3,60.2,120.3,0,150.4h0Z" fill="#556511"/><path d="M154.1,271.4c21-14-11.7-144.5,0-150.4,32.7-16.3,60.2,120.3,0,150.4h0Z" fill="none" stroke="#000" stroke-width="4.9"/><path d="M151,283.6c-34.6-2.8-68.9-3-104.4-3-75.6,0,52.1,55.3,104.4,3h0Z" fill="#84b14b"/><path d="M151,283.6c-34.6-2.8-68.9-3-104.4-3-75.6,0,52.1,55.3,104.4,3h0Z" fill="none" stroke="#000" stroke-width="4.9"/><path d="M160.2,283.6c-136.4-126.1,36.7-49,0,0h0Z" fill="#86ac3c"/><path d="M160.2,283.6c-136.4-126.1,36.7-49,0,0h0Z" fill="none" stroke="#000" stroke-width="4.9"/><path d="M352,527.6c-54.4-13.7-46.1,5.9-75.2,10.7-16.9,2.8-45.7,5.8-58.3,18.4-10.9,10.9,30.7,0,46,0,39,0,56.7-20.2,87.4-29.1h0Z" fill="#96ac71"/><path d="M352,527.6c-54.4-13.7-46.1,5.9-75.2,10.7-16.9,2.8-45.7,5.8-58.3,18.4-10.9,10.9,30.7,0,46,0,39,0,56.7-20.2,87.4-29.1h0Z" fill="none" stroke="#000" stroke-width="4.9"/><path d="M347.1,395.1c59.7,40.4,71,97.3,64.2,169.4-2,21.3,5-32.6-12.9-59.8-30.1-45.9-44.8-47.1-51.3-109.6h0Z" fill="#7dac29"/><path d="M347.1,395.1c59.7,40.4,71,97.3,64.2,169.4-2,21.3,5-32.6-12.9-59.8-30.1-45.9-44.8-47.1-51.3-109.6h0Z" fill="none" stroke="#000" stroke-width="4.9"/><path d="M424.1,558.3c-13.4,35.8,15.3-202.3,15.3-165.7,0,55.6,4.7,115.5-15.3,165.7h0Z" fill="#4f6f25"/><path d="M424.1,558.3c-13.4,35.8,15.3-202.3,15.3-165.7,0,55.6,4.7,115.5-15.3,165.7h0Z" fill="none" stroke="#000" stroke-width="4.9"/><path d="M411.9,578.2c-30.5-14.8-190.3,22.4-190.3,43s176.3-43,190.3-43h0Z" fill="#759239"/><path d="M411.9,578.2c-30.5-14.8-190.3,22.4-190.3,43s176.3-43,190.3-43h0Z" fill="none" stroke="#000" stroke-width="4.9"/><path d="M168.9,282.1c-2.6,.1-5.1,1.8-6.3,4.1-1.2,2.3-1.1,5.3,.3,7.5,0,0,104.6,175.7,253.1,305.6,148.1,129.6,277.4,191.7,343.1,263.4,33.1,36.1,79.1,100.3,116.4,165.8,37.3,65.5,65.7,133.2,65.7,172.7v85.9c0,4,3.6,7.6,7.6,7.6s7.6-3.6,7.6-7.6v-85.9c0-46.4-29.9-113.8-67.7-180.2-37.9-66.4-84-131.1-118.4-168.6-69.3-75.6-197.7-136.3-344.2-264.5-146.1-127.8-250.1-301.9-250.1-301.9-1.4-2.4-4.2-4-7.1-3.8h0Z" fill="#d9e89d"/><path d="M168.9,282.1c-2.6,.1-5.1,1.8-6.3,4.1-1.2,2.3-1.1,5.3,.3,7.5,0,0,104.6,175.7,253.1,305.6,148.1,129.6,277.4,191.7,343.1,263.4,33.1,36.1,79.1,100.3,116.4,165.8,37.3,65.5,65.7,133.2,65.7,172.7v85.9c0,4,3.6,7.6,7.6,7.6s7.6-3.6,7.6-7.6v-85.9c0-46.4-29.9-113.8-67.7-180.2-37.9-66.4-84-131.1-118.4-168.6-69.3-75.6-197.7-136.2-344.2-264.5-146.1-127.8-250.1-301.9-250.1-301.9-1.4-2.4-4.2-4-7.1-3.8h0Z" fill="none" stroke="#000" stroke-width="4.9"/><path d="M642,768.5c-39.4-4.4-71.3,8-104.4,24.6-97.1,48.5,99-24.6,104.4-24.6h0Z" fill="#bacf95"/><path d="M642,768.5c-39.4-4.4-71.3,8-104.4,24.6-97.1,48.5,99-24.6,104.4-24.6h0Z" fill="none" stroke="#000" stroke-width="4.9"/><path d="M163.3,332.8c-52.9-8.3,7.3-96.1,39.9-67.5,24.4,24.3-23.7,61-39.9,67.5h0Z" fill="#b1cc85"/><path d="M163.3,332.8c-52.9-8.3,7.3-96.1,39.9-67.5,24.4,24.3-23.7,61-39.9,67.5h0Z" fill="none" stroke="#000" stroke-width="4.9"/><path d="M632.8,768.5c-15.2,17.1-20.7,31.5-27.6,52.2-6.3,18.9-25.6,32.7-33.7,49.1-7.9,15.8,131.4-87.3,61.4-101.3h0Z" fill="#54663c"/><path d="M632.8,768.5c-15.2,17.1-20.7,31.6-27.6,52.2-6.3,18.9-25.6,32.7-33.7,49.1-7.9,15.8,131.4-87.3,61.4-101.3h0Z" fill="none" stroke="#000" stroke-width="4.9"/><path d="M652.9,770c-6.8-62.7,34.8-144.2,101.3-144.2s-23.7,43.9-27.6,49.1c-23.9,31.9-38.4,73.9-73.6,95.1h0Z" fill="#597941"/><path d="M652.9,770c-6.8-62.7,34.8-144.2,101.3-144.2s-23.7,43.9-27.6,49.1c-23.9,31.9-38.4,73.9-73.6,95.1h0Z" fill="none" stroke="#000" stroke-width="4.9"/></g></g></g></svg>